<svg xmlns="http://www.w3.org/2000/svg" xmlns:svg="http://www.w3.org/2000/svg" xmlns:xlink="http://www.w3.org/1999/xlink" version="1.0" height="770.0000000000002pt" width="1650pt" viewBox="245.0000000000001 26.999999999999858 1658 776.0000000000002" ><defs><style type="text/css">
            @font-face {
                font-family: 'lt_regular';
                src: url('https://app.creately.com/diagram/assets/fonts/lato/lt-regular-webfont.woff2') format('woff2'),
                    url('https://app.creately.com/diagram/assets/fonts/lato/lt-regular-webfont.woff') format('woff');
                font-weight: normal;
                font-style: normal;
            }
            @font-face {
                font-family: 'noto_regular';
                src: url('https://app.creately.com/diagram/assets/fonts/noto/noto-regular.woff') format('woff'),
                     url('https://app.creately.com/diagram/assets/fonts/noto/noto-regular.woff2') format('woff2');
                font-weight: normal;
                font-style: normal;
            }
        p {
            margin: 0;
        }
        </style></defs><defs><style>
            span{ display: inline-block; }
        </style></defs><g id="OJ84NqaZYm6"><g transform="translate(250.0000000000001 149.99999999999997)"><rect x="0" y="0" width="99.99999999999997" height="45" fill="rgb(129,40,33)" stroke="#812821" stroke-width="2" stroke-linecap="round" stroke-linejoin="round" stroke-dasharray="0 0"/><path d="M 49.999999999999986,45 L 49.999999999999986,650" fill="rgb(129,40,33)" stroke="#812821" stroke-width="2" stroke-linecap="round" stroke-linejoin="round" stroke-dasharray="3 3"/><rect x="0" y="0" width="99.99999999999997" height="650" fill="rgba(255,255,255,0.01)" stroke="rgba(255,255,255,0.01)" stroke-width="2" stroke-linecap="round" stroke-linejoin="round" stroke-dasharray="3 3"/></g><g transform="translate(280.5000000000001, 154.99999999999997) rotate(0, 19.5, 0)" width="39" height="35"><text text-decoration="none" x="0.5" fill="#fdf6f6" font-size="10pt" font-family="lt_regular"  y="14">Patron</text><text text-decoration="none" x="38.5" fill="#fdf6f6" font-size="10pt" font-family="lt_regular"  y="14"></text><text text-decoration="none" x="19.5" fill="#4b4b4b" font-size="10pt" font-family="noto_regular"  y="33"></text></g></g><g id="tmtYijE1FCB"><g transform="translate(450.00000000000006 150.00000000000003)"><rect x="0" y="0" width="99.99999999999999" height="45" fill="rgb(129,40,33)" stroke="#812821" stroke-width="2" stroke-linecap="round" stroke-linejoin="round" stroke-dasharray="0 0"/><path d="M 49.99999999999999,45 L 49.99999999999999,650.0000000000001" fill="rgb(129,40,33)" stroke="#812821" stroke-width="2" stroke-linecap="round" stroke-linejoin="round" stroke-dasharray="3 3"/><rect x="0" y="0" width="99.99999999999999" height="650.0000000000001" fill="rgba(255,255,255,0.01)" stroke="rgba(255,255,255,0.01)" stroke-width="2" stroke-linecap="round" stroke-linejoin="round" stroke-dasharray="3 3"/></g><g transform="translate(465, 155.00000000000003) rotate(0, 35, 0)" width="70" height="35"><text text-decoration="none" x="0.5" fill="#fdf6f6" font-size="10pt" font-family="lt_regular"  y="14">Registration</text><text text-decoration="none" x="69.5" fill="#fdf6f6" font-size="10pt" font-family="lt_regular"  y="14"></text><text text-decoration="none" x="35" fill="#4b4b4b" font-size="10pt" font-family="noto_regular"  y="33"></text></g></g><g id="vfUyirBLwIs"><g transform="translate(650 149.99999999999997)"><rect x="0" y="0" width="99.99999999999997" height="45" fill="rgb(129,40,33)" stroke="#812821" stroke-width="2" stroke-linecap="round" stroke-linejoin="round" stroke-dasharray="0 0"/><path d="M 49.999999999999986,45 L 49.999999999999986,650" fill="rgb(129,40,33)" stroke="#812821" stroke-width="2" stroke-linecap="round" stroke-linejoin="round" stroke-dasharray="3 3"/><rect x="0" y="0" width="99.99999999999997" height="650" fill="rgba(255,255,255,0.01)" stroke="rgba(255,255,255,0.01)" stroke-width="2" stroke-linecap="round" stroke-linejoin="round" stroke-dasharray="3 3"/></g><g transform="translate(684.5, 154.99999999999997) rotate(0, 15.5, 0)" width="31" height="35"><text text-decoration="none" x="0" fill="#fdf6f6" font-size="10pt" font-family="lt_regular"  y="14">Login</text><text text-decoration="none" x="31" fill="#fdf6f6" font-size="10pt" font-family="lt_regular"  y="14"></text><text text-decoration="none" x="15.5" fill="#4b4b4b" font-size="10pt" font-family="noto_regular"  y="33"></text></g></g><g id="Iyip4yH1Izq"><g transform="translate(850 149.99999999999997)"><rect x="0" y="0" width="99.99999999999997" height="47" fill="rgb(129,40,33)" stroke="#812821" stroke-width="2" stroke-linecap="round" stroke-linejoin="round" stroke-dasharray="0 0"/><path d="M 49.999999999999986,47 L 49.999999999999986,649.9999999999999" fill="rgb(129,40,33)" stroke="#812821" stroke-width="2" stroke-linecap="round" stroke-linejoin="round" stroke-dasharray="3 3"/><rect x="0" y="0" width="99.99999999999997" height="649.9999999999999" fill="rgba(255,255,255,0.01)" stroke="rgba(255,255,255,0.01)" stroke-width="2" stroke-linecap="round" stroke-linejoin="round" stroke-dasharray="3 3"/></g><g transform="translate(872, 154.99999999999997) rotate(0, 28, 0)" width="56" height="37"><text text-decoration="none" x="0.5" fill="#fdf6f6" font-size="10pt" font-family="lt_regular"  y="14">Password</text><text text-decoration="none" x="55.5" fill="#fdf6f6" font-size="10pt" font-family="lt_regular"  y="14"></text><text text-decoration="none" x="10" fill="#fdf6f6" font-size="10pt" font-family="lt_regular"  y="33">Reset</text><text text-decoration="none" x="46" fill="#4b4b4b" font-size="10pt" font-family="noto_regular"  y="33"></text></g></g><g id="R44fagVhG6q"><g transform="translate(1050 149.99999999999997)"><rect x="0" y="0" width="99.99999999999997" height="45" fill="rgb(129,40,33)" stroke="#812821" stroke-width="2" stroke-linecap="round" stroke-linejoin="round" stroke-dasharray="0 0"/><path d="M 49.999999999999986,45 L 49.999999999999986,649.9999999999999" fill="rgb(129,40,33)" stroke="#812821" stroke-width="2" stroke-linecap="round" stroke-linejoin="round" stroke-dasharray="3 3"/><rect x="0" y="0" width="99.99999999999997" height="649.9999999999999" fill="rgba(255,255,255,0.01)" stroke="rgba(255,255,255,0.01)" stroke-width="2" stroke-linecap="round" stroke-linejoin="round" stroke-dasharray="3 3"/></g><g transform="translate(1061.5, 154.99999999999997) rotate(0, 38.5, 0)" width="77" height="35"><text text-decoration="none" x="1.5" fill="#fdf6f6" font-size="10pt" font-family="lt_regular"  y="14">Meals&#160;</text><text text-decoration="none" x="38.5" fill="#fdf6f6" font-size="10pt" font-family="lt_regular"  y="14">Online</text><text text-decoration="none" x="75.5" fill="#fdf6f6" font-size="10pt" font-family="lt_regular"  y="14"></text><text text-decoration="none" x="38.5" fill="#4b4b4b" font-size="10pt" font-family="noto_regular"  y="33"></text></g></g><g id="qyPeCbYY0dW"><g transform="translate(1249.9999999999998 149.99999999999997)"><rect x="0" y="0" width="99.99999999999997" height="47" fill="rgb(129,40,33)" stroke="#812821" stroke-width="2" stroke-linecap="round" stroke-linejoin="round" stroke-dasharray="0 0"/><path d="M 49.999999999999986,47 L 49.999999999999986,649.9999999999999" fill="rgb(129,40,33)" stroke="#812821" stroke-width="2" stroke-linecap="round" stroke-linejoin="round" stroke-dasharray="3 3"/><rect x="0" y="0" width="99.99999999999997" height="649.9999999999999" fill="rgba(255,255,255,0.01)" stroke="rgba(255,255,255,0.01)" stroke-width="2" stroke-linecap="round" stroke-linejoin="round" stroke-dasharray="3 3"/></g><g transform="translate(1268.9999999999998, 154.99999999999997) rotate(0, 31, 0)" width="62" height="37"><text text-decoration="none" x="14" fill="#fdf6f6" font-size="10pt" font-family="lt_regular"  y="14">Order&#160;</text><text text-decoration="none" x="0" fill="#fdf6f6" font-size="10pt" font-family="lt_regular"  y="33">Processing</text><text text-decoration="none" x="62" fill="#4b4b4b" font-size="10pt" font-family="noto_regular"  y="33"></text></g></g><g id="86EnVUzLVbi"><g transform="translate(1450 149.99999999999997)"><rect x="0" y="0" width="99.99999999999997" height="47" fill="rgb(129,40,33)" stroke="#812821" stroke-width="2" stroke-linecap="round" stroke-linejoin="round" stroke-dasharray="0 0"/><path d="M 49.999999999999986,47 L 49.999999999999986,649.9999999999999" fill="rgb(129,40,33)" stroke="#812821" stroke-width="2" stroke-linecap="round" stroke-linejoin="round" stroke-dasharray="3 3"/><rect x="0" y="0" width="99.99999999999997" height="649.9999999999999" fill="rgba(255,255,255,0.01)" stroke="rgba(255,255,255,0.01)" stroke-width="2" stroke-linecap="round" stroke-linejoin="round" stroke-dasharray="3 3"/></g><g transform="translate(1468.5, 154.99999999999997) rotate(0, 31.5, 0)" width="63" height="37"><text text-decoration="none" x="2.5" fill="#fdf6f6" font-size="10pt" font-family="lt_regular"  y="14">Save&#160;</text><text text-decoration="none" x="32.5" fill="#fdf6f6" font-size="10pt" font-family="lt_regular"  y="14">Meal&#160;</text><text text-decoration="none" x="0" fill="#fdf6f6" font-size="10pt" font-family="lt_regular"  y="33">Preference</text><text text-decoration="none" x="64" fill="#4b4b4b" font-size="10pt" font-family="noto_regular"  y="33"></text></g></g><g id="hXXypIvxjkX"><g transform="translate(1600.0000000000002 149.99999999999997)"><rect x="0" y="0" width="99.99999999999997" height="47" fill="rgb(129,40,33)" stroke="#812821" stroke-width="2" stroke-linecap="round" stroke-linejoin="round" stroke-dasharray="0 0"/><path d="M 49.999999999999986,47 L 49.999999999999986,649.9999999999999" fill="rgb(129,40,33)" stroke="#812821" stroke-width="2" stroke-linecap="round" stroke-linejoin="round" stroke-dasharray="3 3"/><rect x="0" y="0" width="99.99999999999997" height="649.9999999999999" fill="rgba(255,255,255,0.01)" stroke="rgba(255,255,255,0.01)" stroke-width="2" stroke-linecap="round" stroke-linejoin="round" stroke-dasharray="3 3"/></g><g transform="translate(1624.5000000000002, 154.99999999999997) rotate(0, 25.5, 0)" width="51" height="37"><text text-decoration="none" x="8" fill="#fdf6f6" font-size="10pt" font-family="lt_regular"  y="14">Make&#160;</text><text text-decoration="none" x="43" fill="#fdf6f6" font-size="10pt" font-family="lt_regular"  y="14"></text><text text-decoration="none" x="0" fill="#fdf6f6" font-size="10pt" font-family="lt_regular"  y="33">Payment</text><text text-decoration="none" x="51" fill="#4b4b4b" font-size="10pt" font-family="noto_regular"  y="33"></text></g></g><g id="PmYfdg86VvY"><g transform="translate(1800 149.99999999999997)"><rect x="0" y="0" width="99.99999999999997" height="47" fill="rgb(129,40,33)" stroke="#812821" stroke-width="2" stroke-linecap="round" stroke-linejoin="round" stroke-dasharray="0 0"/><path d="M 49.999999999999986,47 L 49.999999999999986,649.9999999999999" fill="rgb(129,40,33)" stroke="#812821" stroke-width="2" stroke-linecap="round" stroke-linejoin="round" stroke-dasharray="3 3"/><rect x="0" y="0" width="99.99999999999997" height="649.9999999999999" fill="rgba(255,255,255,0.01)" stroke="rgba(255,255,255,0.01)" stroke-width="2" stroke-linecap="round" stroke-linejoin="round" stroke-dasharray="3 3"/></g><g transform="translate(1811.5, 154.99999999999997) rotate(0, 38.5, 0)" width="77" height="37"><text text-decoration="none" x="13" fill="#fdf6f6" font-size="10pt" font-family="lt_regular"  y="14">Payment&#160;</text><text text-decoration="none" x="1.5" fill="#fdf6f6" font-size="10pt" font-family="lt_regular"  y="33">Confirmation</text><text text-decoration="none" x="75.5" fill="#4b4b4b" font-size="10pt" font-family="noto_regular"  y="33"></text></g></g><g id="VfmvUgJq73O"><g transform="translate(749.9999999999998 29.999999999999943) rotate(-7.0167092985348775e-15)"><rect x="0" y="0" width="700.0000000000003" height="60.00000000000008" fill="rgba(255,255,255,0.01)" stroke="rgba(255,255,255,0.01)"/></g><g transform="translate(850.5, 39.9999999999999) rotate(0, 249.5, 0)" width="499" height="33"><text text-decoration="none" x="7.5" fill="#4b4b4b" font-weight="bold" font-size="18pt" font-family="lt_regular"  y="26">Cafeteria&#160;</text><text text-decoration="none" x="111.5" fill="#4b4b4b" font-weight="bold" font-size="18pt" font-family="lt_regular"  y="26">Ordering&#160;</text><text text-decoration="none" x="211.5" fill="#4b4b4b" font-weight="bold" font-size="18pt" font-family="lt_regular"  y="26">System&#160;</text><text text-decoration="none" x="294.5" fill="#4b4b4b" font-weight="bold" font-size="18pt" font-family="lt_regular"  y="26">Sequence&#160;</text><text text-decoration="none" x="402.5" fill="#4b4b4b" font-weight="bold" font-size="18pt" font-family="lt_regular"  y="26">Diagram</text><text text-decoration="none" x="491.5" fill="#4b4b4b" font-size="10pt" font-family="noto_regular"  y="26"></text></g></g><g id="la8gjfQrwGu"><g transform="translate(290.0000000000001 209.99999999999991)"><rect x="0" y="0" width="20" height="580.0000000000001" fill="rgb(53,98,96)" stroke="#356260" stroke-width="2" stroke-linecap="round" stroke-linejoin="round" stroke-dasharray="0 0"/></g></g><g id="NtdNN9fRzSV"><g transform="translate(490.00000000000006 210)"><rect x="0" y="0" width="20" height="100.00000000000001" fill="rgb(53,98,96)" stroke="#356260" stroke-width="2" stroke-linecap="round" stroke-linejoin="round" stroke-dasharray="0 0"/></g></g><g id="Ho3UpHWyMzG"><mask id="07b8c" x="296" y="206" width="208" height="28" maskUnits="userSpaceOnUse"><rect x="296" y="206" width="208" height="28" fill="white" /><rect x="321.0000000000001" y="207.99999999999991" width="158" height="24" fill="black" /></mask><g mask="url(#07b8c)"><path d="M 310,220 L 390.0000000000001,219.99999999999991 Q 390.0000000000002,219.99999999999991 400,220 Q 410,220 410.0000000000001,220 L 490,220" fill="none" stroke="#e6b02b" stroke-width="2" stroke-linecap="round" stroke-linejoin="round" stroke-dasharray="0 0"/><path d="M 490,220 L 481.30434782608694,214.25 L 481.30434782608694,225.75 Z" fill="rgb(230,176,43)" stroke="#e6b02b" stroke-width="2" stroke-linecap="round" stroke-linejoin="round"/></g><g transform="translate(324.0000000000001, 210.99999999999991)" width="152" height="18"><text text-decoration="none" x="0" fill="#1e1d1d" font-size="8pt" font-family="lt_regular"  y="15">checkUserIdDatabaseAbscence()</text><text text-decoration="none" x="156" fill="#4b4b4b" font-size="10pt" font-family="noto_regular"  y="15"></text></g></g><g id="Xes5LKE1Njr"><mask id="a092a" x="296" y="246" width="208" height="28" maskUnits="userSpaceOnUse"><rect x="296" y="246" width="208" height="28" fill="white" /><rect x="343.5000000000001" y="247.9999999999999" width="113" height="24" fill="black" /></mask><g mask="url(#a092a)"><path d="M 310,260 L 390.0000000000001,259.9999999999999 Q 390.0000000000003,259.9999999999999 400,260 Q 410,260 410.0000000000001,260 L 490,260" fill="none" stroke="#e6b02b" stroke-width="2" stroke-linecap="round" stroke-linejoin="round" stroke-dasharray="0 0"/><path d="M 490,260 L 481.30434782608694,254.25 L 481.30434782608694,265.75 Z" fill="rgb(230,176,43)" stroke="#e6b02b" stroke-width="2" stroke-linecap="round" stroke-linejoin="round"/></g><g transform="translate(346.5000000000001, 250.9999999999999)" width="107" height="18"><text text-decoration="none" x="0" fill="#1e1d1d" font-size="8pt" font-family="lt_regular"  y="15">checkCardTypeMatch()</text><text text-decoration="none" x="111" fill="#4b4b4b" font-size="10pt" font-family="noto_regular"  y="15"></text></g></g><g id="ePPalBm3chC"><mask id="db0f6" x="296" y="286" width="208" height="28" maskUnits="userSpaceOnUse"><rect x="296" y="286" width="208" height="28" fill="white" /><rect x="353.0000000000001" y="287.9999999999999" width="94" height="24" fill="black" /></mask><g mask="url(#db0f6)"><path d="M 490,300 L 410.0000000000001,300 Q 410,300 400,300 Q 390.0000000000003,299.9999999999999 390.0000000000001,299.9999999999999 L 310,300" fill="none" stroke="#e6b02b" stroke-width="2" stroke-linecap="round" stroke-linejoin="round" stroke-dasharray="0 0"/><path d="M 310,300 L 318.69565217391306,305.75 L 318.69565217391306,294.25 Z" fill="rgb(230,176,43)" stroke="#e6b02b" stroke-width="2" stroke-linecap="round" stroke-linejoin="round"/></g><g transform="translate(356.0000000000001, 290.9999999999999)" width="88" height="18"><text text-decoration="none" x="0" fill="#1e1d1d" font-size="8pt" font-family="lt_regular"  y="15">registrationStatus()</text><text text-decoration="none" x="92" fill="#4b4b4b" font-size="10pt" font-family="noto_regular"  y="15"></text></g></g><g id="T2DAjzxnS33"><g transform="translate(690 310)"><rect x="0" y="0" width="20" height="479.99999999999994" fill="rgb(53,98,96)" stroke="#356260" stroke-width="2" stroke-linecap="round" stroke-linejoin="round" stroke-dasharray="0 0"/></g></g><g id="O4wcdajCNmt"><mask id="fb8b3" x="296" y="326" width="408" height="28" maskUnits="userSpaceOnUse"><rect x="296" y="326" width="408" height="28" fill="white" />undefined<rect x="508.375" y="328" width="143" height="24" fill="black" /></mask><g mask="url(#fb8b3)"><path d="M 310,340 L 490.00000000000006,339.9999999999999 Q 490.00000000000017,339.9999999999999 500,340 Q 510,340 510.00000000000006,340 L 690,340" fill="none" stroke="#e6b02b" stroke-width="2" stroke-linecap="round" stroke-linejoin="round" stroke-dasharray="0 0"/><path d="M 690,340 L 681.304347826087,334.25 L 681.304347826087,345.75 Z" fill="rgb(230,176,43)" stroke="#e6b02b" stroke-width="2" stroke-linecap="round" stroke-linejoin="round"/></g>undefined<g transform="translate(511.375, 331)" width="137" height="18"><text text-decoration="none" x="0" fill="#1e1d1d" font-size="8pt" font-family="lt_regular"  y="15">databaseValidateIdPassword()</text><text text-decoration="none" x="143" fill="#4b4b4b" font-size="10pt" font-family="noto_regular"  y="15"></text></g></g><g id="9TtwT6Ah32O"><g transform="translate(890 310.00000000000006)"><rect x="0" y="0" width="20" height="80" fill="rgb(53,98,96)" stroke="#356260" stroke-width="2" stroke-linecap="round" stroke-linejoin="round" stroke-dasharray="0 0"/></g></g><g id="AcZppaRn0IU"><mask id="4b96a" x="696" y="326" width="208" height="28" maskUnits="userSpaceOnUse"><rect x="696" y="326" width="208" height="28" fill="white" /><rect x="760" y="328" width="80" height="24" fill="black" /></mask><g mask="url(#4b96a)"><path d="M 710,340 L 800,340 Q 810,340.00000000000006 810,340.00000000000006 L 890,340" fill="none" stroke="#e6b02b" stroke-width="2" stroke-linecap="round" stroke-linejoin="round" stroke-dasharray="0 0"/><path d="M 890,340 L 881.304347826087,334.25 L 881.304347826087,345.75 Z" fill="rgb(230,176,43)" stroke="#e6b02b" stroke-width="2" stroke-linecap="round" stroke-linejoin="round"/></g><g transform="translate(763, 331)" width="74" height="18"><text text-decoration="none" x="0" fill="#1e1d1d" font-size="8pt" font-family="lt_regular"  y="15">resetPassword()</text><text text-decoration="none" x="78" fill="#4b4b4b" font-size="10pt" font-family="noto_regular"  y="15"></text></g></g><g id="DlKumyasZxf"><mask id="b2b6d" x="696" y="366" width="208" height="28" maskUnits="userSpaceOnUse"><rect x="696" y="366" width="208" height="28" fill="white" /><rect x="721" y="368" width="158" height="24" fill="black" /></mask><g mask="url(#b2b6d)"><path d="M 890,380 L 814,380 Q 804,380 803.6249999999998,380 L 710,380" fill="none" stroke="#e6b02b" stroke-width="2" stroke-linecap="round" stroke-linejoin="round" stroke-dasharray="0 0"/><path d="M 710,380 L 718.695652173913,385.75 L 718.695652173913,374.25 Z" fill="rgb(230,176,43)" stroke="#e6b02b" stroke-width="2" stroke-linecap="round" stroke-linejoin="round"/></g><g transform="translate(724, 371)" width="152" height="18"><text text-decoration="none" x="0" fill="#1e1d1d" font-size="8pt" font-family="lt_regular"  y="15">checkUserIdDatabaseAbscence()</text><text text-decoration="none" x="156" fill="#4b4b4b" font-size="10pt" font-family="noto_regular"  y="15"></text></g></g><g id="XDrh707m3cy"><g transform="translate(1090.0000000000002 410)"><rect x="0" y="0" width="20" height="80" fill="rgb(53,98,96)" stroke="#356260" stroke-width="2" stroke-linecap="round" stroke-linejoin="round" stroke-dasharray="0 0"/></g></g><g id="QZL2zuKb4eI"><mask id="c09cf" x="696" y="406" width="408" height="28" maskUnits="userSpaceOnUse"><rect x="696" y="406" width="408" height="28" fill="white" /><rect x="841.5" y="408" width="117" height="24" fill="black" /></mask><g mask="url(#c09cf)"><path d="M 710,420 L 1090,420" fill="none" stroke="#e6b02b" stroke-width="2" stroke-linecap="round" stroke-linejoin="round" stroke-dasharray="0 0"/><path d="M 1090,420 L 1081.304347826087,414.25 L 1081.304347826087,425.75 Z" fill="rgb(230,176,43)" stroke="#e6b02b" stroke-width="2" stroke-linecap="round" stroke-linejoin="round"/></g><g transform="translate(844.5, 411)" width="111" height="18"><text text-decoration="none" x="3.5" fill="#1e1d1d" font-size="8pt" font-family="lt_regular"  y="30">placeCafeteriaOrder()</text><text text-decoration="none" x="107.5" fill="#4b4b4b" font-size="10pt" font-family="noto_regular"  y="30"></text></g></g><g id="RjegNaYlWj6"><mask id="e9db5" x="696" y="446" width="408" height="28" maskUnits="userSpaceOnUse"><rect x="696" y="446" width="408" height="28" fill="white" /><rect x="831" y="448" width="138" height="24" fill="black" /></mask><g mask="url(#e9db5)"><path d="M 710,460 L 1090,460" fill="none" stroke="#e6b02b" stroke-width="2" stroke-linecap="round" stroke-linejoin="round" stroke-dasharray="0 0"/><path d="M 1090,460 L 1081.304347826087,454.25 L 1081.304347826087,465.75 Z" fill="rgb(230,176,43)" stroke="#e6b02b" stroke-width="2" stroke-linecap="round" stroke-linejoin="round"/></g><g transform="translate(834, 451)" width="132" height="18"><text text-decoration="none" x="0" fill="#1e1d1d" font-size="8pt" font-family="lt_regular"  y="15">placeLocalRestaurantOrder()</text><text text-decoration="none" x="137" fill="#4b4b4b" font-size="10pt" font-family="noto_regular"  y="15"></text></g></g><g id="h5UwhLXzYOZ"><g transform="translate(1290 410)"><rect x="0" y="0" width="20" height="139.99999999999997" fill="rgb(53,98,96)" stroke="#356260" stroke-width="2" stroke-linecap="round" stroke-linejoin="round" stroke-dasharray="0 0"/></g></g><g id="2ZZoqwhUmuj"><mask id="82fe9" x="1096" y="406" width="208" height="28" maskUnits="userSpaceOnUse"><rect x="1096" y="406" width="208" height="28" fill="white" /><rect x="1168" y="408" width="64" height="24" fill="black" /></mask><g mask="url(#82fe9)"><path d="M 1110,420 L 1290,420" fill="none" stroke="#e6b02b" stroke-width="2" stroke-linecap="round" stroke-linejoin="round" stroke-dasharray="0 0"/><path d="M 1290,420 L 1281.304347826087,414.25 L 1281.304347826087,425.75 Z" fill="rgb(230,176,43)" stroke="#e6b02b" stroke-width="2" stroke-linecap="round" stroke-linejoin="round"/></g><g transform="translate(1171, 411)" width="58" height="18"><text text-decoration="none" x="0" fill="#1e1d1d" font-size="8pt" font-family="lt_regular"  y="15">placeOrder()</text><text text-decoration="none" x="60" fill="#4b4b4b" font-size="10pt" font-family="noto_regular"  y="15"></text></g></g><g id="VjOqDHZwZY3"><mask id="af3c6" x="696" y="506" width="608" height="28" maskUnits="userSpaceOnUse"><rect x="696" y="506" width="608" height="28" fill="white" /><rect x="932" y="508" width="136" height="24" fill="black" /></mask><g mask="url(#af3c6)"><path d="M 1290,520 L 710,520" fill="none" stroke="#e6b02b" stroke-width="2" stroke-linecap="round" stroke-linejoin="round" stroke-dasharray="0 0"/><path d="M 710,520 L 718.695652173913,525.75 L 718.695652173913,514.25 Z" fill="rgb(230,176,43)" stroke="#e6b02b" stroke-width="2" stroke-linecap="round" stroke-linejoin="round"/></g><g transform="translate(935, 511)" width="130" height="18"><text text-decoration="none" x="0" fill="#1e1d1d" font-size="8pt" font-family="lt_regular"  y="15">reviewMenuItemsSelected()</text><text text-decoration="none" x="137" fill="#4b4b4b" font-size="10pt" font-family="noto_regular"  y="15"></text></g></g><g id="14Zgvvqqlyd"><g transform="translate(1490 450)"><rect x="0" y="0" width="20" height="80" fill="rgb(53,98,96)" stroke="#356260" stroke-width="2" stroke-linecap="round" stroke-linejoin="round" stroke-dasharray="0 0"/></g></g><g id="RJOHuMq9o1s"><mask id="5fae6" x="1296" y="446" width="208" height="28" maskUnits="userSpaceOnUse"><rect x="1296" y="446" width="208" height="28" fill="white" /><rect x="1347" y="448" width="106" height="24" fill="black" /></mask><g mask="url(#5fae6)"><path d="M 1310,460 L 1490,460" fill="none" stroke="#e6b02b" stroke-width="2" stroke-linecap="round" stroke-linejoin="round" stroke-dasharray="0 0"/><path d="M 1490,460 L 1481.304347826087,454.25 L 1481.304347826087,465.75 Z" fill="rgb(230,176,43)" stroke="#e6b02b" stroke-width="2" stroke-linecap="round" stroke-linejoin="round"/></g><g transform="translate(1350, 451)" width="100" height="18"><text text-decoration="none" x="0" fill="#1e1d1d" font-size="8pt" font-family="lt_regular"  y="15">saveMealPreference()</text><text text-decoration="none" x="106" fill="#4b4b4b" font-size="10pt" font-family="noto_regular"  y="15"></text></g></g><g id="STcIMPRRloE"><mask id="5f7cb" x="1296" y="486" width="208" height="31" maskUnits="userSpaceOnUse"><rect x="1296" y="486" width="208" height="31" fill="white" /><rect x="1360" y="489.39075792081064" width="80" height="24" fill="black" /></mask><g mask="url(#5f7cb)"><path d="M 1490,500 L 1410,500 Q 1409,500 1400,501 Q 1391.7812742764374,502.8012260694671 1390.0000295378707,502.8055554837622 L 1310,503" fill="none" stroke="#e6b02b" stroke-width="2" stroke-linecap="round" stroke-linejoin="round" stroke-dasharray="0 0"/><path d="M 1310,503 L 1318.695652173913,508.75 L 1318.695652173913,497.25 Z" fill="rgb(230,176,43)" stroke="#e6b02b" stroke-width="2" stroke-linecap="round" stroke-linejoin="round"/></g><g transform="translate(1363, 492.39075792081064)" width="74" height="18"><text text-decoration="none" x="0" fill="#1e1d1d" font-size="8pt" font-family="lt_regular"  y="15">createPatronId()</text><text text-decoration="none" x="77" fill="#4b4b4b" font-size="10pt" font-family="noto_regular"  y="15"></text></g></g><g id="Z2eh6UMtyHF"><g transform="translate(1640.0000000000005 530)"><rect x="0" y="0" width="20" height="80" fill="rgb(53,98,96)" stroke="#356260" stroke-width="2" stroke-linecap="round" stroke-linejoin="round" stroke-dasharray="0 0"/></g></g><g id="VbKoCo09AN8"><mask id="73233" x="696" y="546" width="958" height="28" maskUnits="userSpaceOnUse"><rect x="696" y="546" width="958" height="28" fill="white" /><rect x="1136.5" y="548" width="77" height="24" fill="black" /></mask><g mask="url(#73233)"><path d="M 710,560 L 1640,560" fill="none" stroke="#e6b02b" stroke-width="2" stroke-linecap="round" stroke-linejoin="round" stroke-dasharray="0 0"/><path d="M 1640,560 L 1631.304347826087,554.25 L 1631.304347826087,565.75 Z" fill="rgb(230,176,43)" stroke="#e6b02b" stroke-width="2" stroke-linecap="round" stroke-linejoin="round"/></g><g transform="translate(1139.5, 551)" width="71" height="18"><text text-decoration="none" x="0" fill="#1e1d1d" font-size="8pt" font-family="lt_regular"  y="15">makePayment()</text><text text-decoration="none" x="75" fill="#4b4b4b" font-size="10pt" font-family="noto_regular"  y="15"></text></g></g><g id="WzYLePOeyet"><g transform="translate(1840 530)"><rect x="0" y="0" width="20" height="259.99999999999994" fill="rgb(53,98,96)" stroke="#356260" stroke-width="2" stroke-linecap="round" stroke-linejoin="round" stroke-dasharray="0 0"/></g></g><g id="OM4DGXJtR1O"><mask id="14034" x="1646" y="546" width="208" height="28" maskUnits="userSpaceOnUse"><rect x="1646" y="546" width="208" height="28" fill="white" /><rect x="1696.5" y="548" width="107" height="24" fill="black" /></mask><g mask="url(#14034)"><path d="M 1660,560 L 1840,560" fill="none" stroke="#e6b02b" stroke-width="2" stroke-linecap="round" stroke-linejoin="round" stroke-dasharray="0 0"/><path d="M 1840,560 L 1831.304347826087,554.25 L 1831.304347826087,565.75 Z" fill="rgb(230,176,43)" stroke="#e6b02b" stroke-width="2" stroke-linecap="round" stroke-linejoin="round"/></g><g transform="translate(1699.5, 551)" width="101" height="18"><text text-decoration="none" x="0" fill="#1e1d1d" font-size="8pt" font-family="lt_regular"  y="15">paymentInformation()</text><text text-decoration="none" x="104" fill="#4b4b4b" font-size="10pt" font-family="noto_regular"  y="15"></text></g></g><g id="utgS8NRNBR5"><mask id="eb0c0" x="696" y="746" width="1158" height="28" maskUnits="userSpaceOnUse"><rect x="696" y="746" width="1158" height="28" fill="white" /><rect x="1197" y="748" width="156" height="24" fill="black" /></mask><g mask="url(#eb0c0)"><path d="M 1840,760 L 710,760" fill="none" stroke="#e6b02b" stroke-width="2" stroke-linecap="round" stroke-linejoin="round" stroke-dasharray="0 0"/><path d="M 710,760 L 718.695652173913,765.75 L 718.695652173913,754.25 Z" fill="rgb(230,176,43)" stroke="#e6b02b" stroke-width="2" stroke-linecap="round" stroke-linejoin="round"/></g><g transform="translate(1200, 751)" width="150" height="18"><text text-decoration="none" x="0" fill="#1e1d1d" font-size="8pt" font-family="lt_regular"  y="15">displayOrderMealConfirmation()</text><text text-decoration="none" x="155" fill="#4b4b4b" font-size="10pt" font-family="noto_regular"  y="15"></text></g></g><g id="28OhEVbK7ox"><mask id="774a9" x="296" y="766" width="408" height="28" maskUnits="userSpaceOnUse"><rect x="296" y="766" width="408" height="28" fill="white" />undefined<rect x="396.84374999999994" y="768" width="42" height="24" fill="black" /><rect x="396.84374999999994" y="768" width="42" height="24" fill="black" /></mask><g mask="url(#774a9)"><path d="M 690,780 L 310,780" fill="none" stroke="#e6b02b" stroke-width="2" stroke-linecap="round" stroke-linejoin="round" stroke-dasharray="0 0"/><path d="M 310,780 L 318.69565217391306,785.75 L 318.69565217391306,774.25 Z" fill="rgb(230,176,43)" stroke="#e6b02b" stroke-width="2" stroke-linecap="round" stroke-linejoin="round"/></g>undefined<g transform="translate(399.84374999999994, 771)" width="36" height="18"><text text-decoration="none" x="0" fill="#1e1d1d" font-size="8pt" font-family="lt_regular"  y="15">logout()</text><text text-decoration="none" x="37" fill="#4b4b4b" font-size="10pt" font-family="noto_regular"  y="15"></text></g><g transform="translate(399.84374999999994, 771)" width="36" height="18"><text text-decoration="none" x="0" fill="#1e1d1d" font-size="8pt" font-family="lt_regular"  y="15">logout()</text><text text-decoration="none" x="37" fill="#4b4b4b" font-size="10pt" font-family="noto_regular"  y="15"></text></g></g></svg>